<svg xmlns="http://www.w3.org/2000/svg" xmlns:xlink="http://www.w3.org/1999/xlink" width="48" height="48" viewBox="0 0 48 48">
    <defs>
        <linearGradient id="b" x1="50%" x2="50%" y1="0%" y2="100%">
            <stop offset="0%" stop-color="#FFF" stop-opacity=".5"/>
            <stop offset="100%" stop-opacity=".5"/>
        </linearGradient>
        <path id="a" d="M39.685 10.179c.498.5.925 1.178 1.281 2.035.356.857.534 1.643.534 2.357V45.43c0 .714-.25 1.321-.747 1.821-.499.5-1.104.75-1.816.75H3.063c-.712 0-1.317-.25-1.816-.75A2.484 2.484 0 0 1 .5 45.429V2.57c0-.714.25-1.321.747-1.821C1.746.25 2.351 0 3.063 0h23.916c.712 0 1.495.179 2.35.536.853.357 1.53.785 2.028 1.285l8.328 8.358zM27.833 3.643v10.071H37.87c-.178-.518-.374-.884-.587-1.098l-8.355-8.384c-.214-.214-.579-.41-1.095-.59zm10.25 40.928V17.143H26.98c-.712 0-1.317-.25-1.815-.75a2.484 2.484 0 0 1-.747-1.822V3.43h-20.5V44.57h34.166zM10.75 21.43c0-.25.08-.456.24-.616a.83.83 0 0 1 .614-.242h18.792c.249 0 .454.08.614.242.16.16.24.366.24.616v1.714c0 .25-.08.455-.24.616a.83.83 0 0 1-.614.241H11.604a.83.83 0 0 1-.614-.241.836.836 0 0 1-.24-.616v-1.714zm19.646 6c.249 0 .454.08.614.24.16.161.24.367.24.617V30c0 .25-.08.455-.24.616a.83.83 0 0 1-.614.241H11.604a.83.83 0 0 1-.614-.24.836.836 0 0 1-.24-.617v-1.714c0-.25.08-.456.24-.616a.83.83 0 0 1 .614-.241h18.792zm0 6.857c.249 0 .454.08.614.24.16.162.24.367.24.617v1.714c0 .25-.08.456-.24.616a.83.83 0 0 1-.614.241H11.604a.83.83 0 0 1-.614-.24.836.836 0 0 1-.24-.617v-1.714c0-.25.08-.455.24-.616a.83.83 0 0 1 .614-.241h18.792zM13.5 5c3.315 0 6 2.685 6 6s-2.685 6-6 6-6-2.685-6-6 2.685-6 6-6zm.6 10.2V14h-1.2v1.2h1.2zm1.239-4.647c.348-.348.561-.825.561-1.353a2.4 2.4 0 1 0-4.8 0h1.2a1.2 1.2 0 1 1 2.049.846l-.747.756A2.404 2.404 0 0 0 12.9 12.5v.3h1.2c0-.9.27-1.263.702-1.695l.537-.552z"/>
    </defs>
    <g fill="none" fill-rule="evenodd" transform="translate(3)">
        <mask id="c" fill="#fff">
            <use xlink:href="#a"/>
        </mask>
        <use fill="#4A4A4A" xlink:href="#a"/>
        <use fill="url(#b)" xlink:href="#a"/>
        <g fill="#009688" mask="url(#c)">
            <path d="M-3 0h48v48H-3z"/>
        </g>
    </g>
</svg>
