<svg xmlns="http://www.w3.org/2000/svg" xmlns:xlink="http://www.w3.org/1999/xlink" width="48" height="48" viewBox="0 0 48 48">
    <defs>
        <path id="a" d="M20 7.521c3.646 0 5.208 2.09 4.683 6.475a1.567 1.567 0 0 1-.336 2.864c-.272.969-.693 1.827-1.222 2.513v3.296c1.736.348 3.125.522 5.208 1.567 2.084 1.044 2.778 2.002 4.167 3.395v4.962h-25V27.63c1.389-1.393 2.083-2.35 4.167-3.395 2.083-1.045 3.472-1.22 5.208-1.567v-3.296c-.53-.686-.95-1.544-1.221-2.513a1.567 1.567 0 0 1-1.123-1.504c0-.582.317-1.09.786-1.36C14.792 9.61 16.354 7.52 20 7.52zm-9.583 15.774c-1.727.866-1.562.732-2.567 1.776H0V20.11c1.389-1.393 2.083-2.35 4.167-3.395 2.083-1.045 3.472-1.219 5.208-1.567v-3.296c-.53-.686-.95-1.543-1.221-2.512a1.567 1.567 0 0 1-.337-2.864C7.292 2.089 8.854 0 12.5 0c3.42 0 5.006 2.778 4.756 6.625-2.256.896-3.506 2.15-3.501 5.804-.47.27-.786.778-.786 1.36 0 .712.161 1.627.81 1.818.27.968.692 1.826 1.221 2.512v3.61c-1.736.348-2.5.522-4.583 1.566zm19.166 0C27.5 22.251 26.736 22.077 25 21.728V18.12c.53-.686.95-1.544 1.221-2.512.649-.19.81-1.106.81-1.818 0-.582-.316-1.09-.786-1.36.005-3.654-1.245-4.908-3.501-5.804C22.494 2.778 24.08 0 27.5 0c3.646 0 5.208 2.09 4.683 6.475a1.567 1.567 0 0 1-.337 2.864c-.27.969-.692 1.826-1.221 2.512v3.296c1.736.348 3.125.522 5.208 1.567 2.084 1.045 2.778 2.002 4.167 3.395v4.962h-7.85c-1.005-1.044-.84-.91-2.567-1.776z"/>
    </defs>
    <g fill="none" fill-rule="evenodd" transform="translate(4 8)">
        <mask id="b" fill="#fff">
            <use xlink:href="#a"/>
        </mask>
        <use fill="#000" fill-rule="nonzero" xlink:href="#a"/>
        <g fill="#FFF" mask="url(#b)">
            <path d="M-4-8h48v48H-4z"/>
        </g>
    </g>
</svg>
