<svg xmlns="http://www.w3.org/2000/svg" xmlns:xlink="http://www.w3.org/1999/xlink" width="48" height="48" viewBox="0 0 48 48">
    <defs>
        <path id="a" d="M35.903 27.386s-1.525-.15-3.562-.265c-.128 6.274-1.15 10.287-3.273 11.352V31.82a.985.985 0 0 0 .864-.973v-.99c0-.552-.443-1-.994-1H26.76a.996.996 0 0 0-.993 1v.99c0 .506.378.906.864.973v6.652c-2.123-1.065-3.146-5.078-3.273-11.352-2.038.117-3.563.265-3.563.265a4.105 4.105 0 0 0-4.096 4.112v5.21c0 2.274 6.346 3.292 12.288 3.292C33.926 40 40 38.982 40 36.708v-5.21a4.105 4.105 0 0 0-4.097-4.112zm-8.056-.04c2.903 0 7.372-3.81 7.372-8.874 0-4.893-3.308-8.873-7.372-8.873-4.062 0-7.37 3.981-7.37 8.873 0 5.064 4.47 8.874 7.37 8.874zm-5.509-10.854c.192-.322.404-.643.607-.924.584-.805 1.061-1.614 2.259 0 1.123 1.517 5.355 2.367 8.36 2.464.006.147.017.293.017.44 0 3.92-3.521 7.232-5.735 7.232-2.212 0-5.733-3.311-5.733-7.232.001-.687.084-1.35.225-1.98zm-11.52 6.095l-2.577-1.905 5.277-5.298V6.793h3.363v9.706l-6.063 6.088zM27.143 6.05C23.72 1.48 17.851-.94 11.917.34 3.774 2.098-1.41 10.149.339 18.328a15.113 15.113 0 0 0 12.28 11.765l2.332-3.357c-5.274-.054-9.996-3.759-11.15-9.154-1.338-6.257 2.629-12.42 8.86-13.762 4.15-.896 8.26.575 10.936 3.506l3.546-1.275z"/>
    </defs>
    <g fill="none" fill-rule="evenodd" transform="translate(4 4)">
        <mask id="b" fill="#fff">
            <use xlink:href="#a"/>
        </mask>
        <use fill="#FFF" xlink:href="#a"/>
        <g fill="#FFF" mask="url(#b)">
            <path d="M-4-4h48v48H-4z"/>
        </g>
    </g>
</svg>
