<svg xmlns="http://www.w3.org/2000/svg" xmlns:xlink="http://www.w3.org/1999/xlink" width="48" height="48" viewBox="0 0 48 48">
    <defs>
        <path id="a" d="M37.5 18.439a6.938 6.938 0 0 1-1.18 3.918 6.24 6.24 0 0 1 .217 1.657 6.89 6.89 0 0 1-.916 3.461c.047.337.072.682.072 1.034 0 1.62-.481 3.046-1.446 4.28.017 2.227-.666 3.985-2.047 5.276C30.819 39.355 28.997 40 26.73 40h-3.107c-1.542 0-3.064-.18-4.566-.54-1.502-.361-3.24-.885-5.215-1.576-1.864-.64-2.972-.961-3.324-.961H3.584c-.852 0-1.578-.301-2.181-.901A2.96 2.96 0 0 1 .5 33.847V18.463c0-.85.301-1.575.903-2.176a2.968 2.968 0 0 1 2.18-.901h6.602c.577-.386 1.676-1.626 3.3-3.726a46.023 46.023 0 0 1 2.577-3.078c.385-.4.67-1.085.856-2.055.183-.97.429-1.983.735-3.042.304-1.057.802-1.922 1.493-2.595.627-.593 1.35-.89 2.169-.89 1.348 0 2.561.26 3.636.78 1.076.52 1.895 1.334 2.458 2.44.563 1.105.843 2.596.843 4.471 0 1.49-.386 3.029-1.157 4.616h4.24c1.67 0 3.116.609 4.336 1.827 1.22 1.22 1.829 2.654 1.829 4.305zM6.21 33.39c.304-.304.457-.665.457-1.081 0-.417-.152-.777-.458-1.082a1.481 1.481 0 0 0-1.083-.457c-.418 0-.779.152-1.084.457a1.475 1.475 0 0 0-.458 1.082c0 .416.152.777.458 1.081.304.305.666.457 1.084.457.416 0 .778-.152 1.083-.457zm28.208-14.927c0-.817-.315-1.534-.94-2.152-.627-.616-1.341-.925-2.144-.925h-8.479c0-.929.387-2.208 1.157-3.834.771-1.626 1.158-2.912 1.158-3.858 0-1.57-.259-2.732-.771-3.485-.514-.754-1.542-1.13-3.083-1.13-.417.418-.723 1.098-.916 2.042a43.589 43.589 0 0 1-.735 3.017c-.297 1.066-.775 1.943-1.434 2.632-.353.368-.972 1.099-1.855 2.188-.063.08-.248.32-.554.72a46.463 46.463 0 0 1-1.59 2.007c-.354.424-.675.777-.964 1.057-.288.281-.598.565-.927.854-.329.288-.65.504-.963.65-.313.144-.599.215-.856.215H9.75v15.385h.77c.209 0 .461.024.759.071.297.049.562.1.795.156.232.056.538.145.916.266.377.12.657.212.843.275l.855.3c.386.138.617.221.698.254 3.388 1.169 6.134 1.755 8.239 1.755h2.914c3.082 0 4.626-1.338 4.626-4.014 0-.417-.04-.865-.12-1.347.481-.256.863-.676 1.143-1.262a4.038 4.038 0 0 0 .422-1.766c0-.592-.145-1.145-.433-1.658.851-.802 1.276-1.756 1.276-2.86 0-.4-.08-.846-.24-1.336-.16-.488-.362-.868-.603-1.14.514-.017.944-.394 1.288-1.132.347-.736.52-1.385.52-1.945z"/>
    </defs>
    <g fill="none" fill-rule="evenodd" transform="translate(5 4)">
        <mask id="b" fill="#fff">
            <use xlink:href="#a"/>
        </mask>
        <use fill="#000" fill-rule="nonzero" xlink:href="#a"/>
        <g fill="#FFF" mask="url(#b)">
            <path d="M-5-4h48v48H-5z"/>
        </g>
    </g>
</svg>
