<svg xmlns="http://www.w3.org/2000/svg" xmlns:xlink="http://www.w3.org/1999/xlink" width="48" height="48" viewBox="0 0 48 48">
    <defs>
        <path id="a" d="M3.8 10c0-3.42 2.78-6.2 6.2-6.2h8V0h-8C4.48 0 0 4.48 0 10s4.48 10 10 10h8v-3.8h-8c-3.42 0-6.2-2.78-6.2-6.2zm8.2 2h16V8H12v4zM30 0h-8v3.8h8c3.42 0 6.2 2.78 6.2 6.2 0 3.42-2.78 6.2-6.2 6.2h-8V20h8c5.52 0 10-4.48 10-10S35.52 0 30 0z"/>
    </defs>
    <g fill="none" fill-rule="evenodd" transform="translate(4 14)">
        <mask id="b" fill="#fff">
            <use xlink:href="#a"/>
        </mask>
        <use fill="#000" fill-rule="nonzero" xlink:href="#a"/>
        <g fill="#4A4A4A" mask="url(#b)">
            <path d="M-4-14h48v48H-4z"/>
        </g>
    </g>
</svg>
