<svg xmlns="http://www.w3.org/2000/svg" width="48" height="48" viewBox="0 0 48 48">
    <g fill="none" fill-rule="evenodd">
        <path fill="#BB0600" d="M42 15.893V41.5c0 1.38-1.152 2.5-2.575 2.5H8.575C7.153 44 6 42.878 6 41.498V6.502C6 5.12 7.154 4 8.57 4h21.012"/>
        <path fill="#A90600" d="M29.571 4v8.627c0 1.738 1.518 3.16 3.373 3.16H42L29.571 4z"/>
        <g fill="#FFF" fill-rule="nonzero">
            <path d="M31.077 31.653a7.425 7.425 0 0 1-4.315-1.75c-2.39.524-4.664 1.282-6.938 2.216-1.808 3.21-3.5 4.843-4.957 4.843-.292 0-.642-.058-.876-.234a1.717 1.717 0 0 1-.99-1.576c0-.524.116-1.982 5.655-4.373a41.46 41.46 0 0 0 3.09-7.234c-.698-1.4-2.215-4.841-1.166-6.592.35-.642 1.05-.992 1.808-.934a1.934 1.934 0 0 1 1.516.758c.758 1.05.698 3.267-.29 6.534a17.579 17.579 0 0 0 3.616 4.667c1.224-.232 2.45-.408 3.673-.408 2.742.058 3.15 1.344 3.092 2.099-.002 1.984-1.927 1.984-2.918 1.984zM14.751 35.27l.174-.058c.816-.292 1.458-.874 1.924-1.634a4.598 4.598 0 0 0-2.098 1.692zm7.755-17.5h-.176c-.058 0-.176 0-.234.058-.232.992-.058 2.042.352 2.976a4.93 4.93 0 0 0 .058-3.034zm.408 8.458l-.058.118-.06-.06a47.774 47.774 0 0 1-1.75 3.967l.116-.058v.116a34.67 34.67 0 0 1 3.966-1.166l-.056-.059h.176a17.626 17.626 0 0 1-2.334-2.858zm7.93 3.092c-.525 0-.99 0-1.515.117.583.29 1.166.408 1.748.466.408.058.818 0 1.166-.116 0-.175-.233-.467-1.4-.467z"/>
        </g>
    </g>
</svg>
