<svg xmlns="http://www.w3.org/2000/svg" width="48" height="48" viewBox="0 0 48 48">
    <g fill="none" fill-rule="evenodd">
        <path fill="#D24726" d="M42 15.893V41.5c0 1.38-1.152 2.5-2.575 2.5H8.575C7.153 44 6 42.878 6 41.498V6.502C6 5.12 7.154 4 8.57 4h21.012"/>
        <path fill="#97370C" d="M29.571 4v8.627c0 1.738 1.518 3.16 3.373 3.16H42L29.571 4z"/>
        <g fill="#FFF" fill-rule="nonzero">
            <path d="M20.004 35.785h-2.998v-17.78h8.993c3.297 0 5.995 2.476 5.995 5.502S29.296 29.009 26 29.009h-4.497v-2.751H26c1.649 0 2.997-1.238 2.997-2.751s-1.348-2.75-2.997-2.75h-5.995v15.028z"/>
        </g>
    </g>
</svg>
