<svg xmlns="http://www.w3.org/2000/svg" width="48" height="48" viewBox="0 0 48 48">
    <g fill="none" fill-rule="evenodd">
        <path fill="#3569CF" d="M42 15.893V41.5c0 1.38-1.152 2.5-2.575 2.5H8.575C7.153 44 6 42.878 6 41.498V6.502C6 5.12 7.154 4 8.57 4h21.012"/>
        <path fill="#2553AD" d="M29.571 4v8.627c0 1.738 1.518 3.16 3.373 3.16H42L29.571 4z"/>
        <g fill="#FFF" fill-rule="nonzero">
            <path d="M20.34 28.897v6.73h-3.69V18.802h7.289c3.875.122 5.843 1.577 5.905 4.365-.062 2.182-1.231 3.547-3.506 4.093v.091c1.66.182 2.675 1.426 3.045 3.73 0 .181.03.363.091.545.123 2.062.43 3.396.923 4.002H26.43a21.898 21.898 0 0 1-.645-4.547c-.185-1.456-.708-2.184-1.569-2.184h-3.874zm0-7.276v4.456h3.045c1.661 0 2.521-.787 2.583-2.364-.062-1.394-.922-2.092-2.583-2.092h-3.044z"/>
        </g>
    </g>
</svg>
