<svg xmlns="http://www.w3.org/2000/svg" xmlns:xlink="http://www.w3.org/1999/xlink" width="48" height="48" viewBox="0 0 48 48">
    <defs>
        <path id="a" d="M10 7.5c1.38 0 2.5-1.12 2.5-2.5V2.5a2.5 2.5 0 0 0-5 0V5A2.5 2.5 0 0 0 10 7.5zm20 0A2.5 2.5 0 0 0 32.5 5V2.5a2.5 2.5 0 1 0-5 0V5A2.5 2.5 0 0 0 30 7.5zm5-5V5c0 2.76-2.24 5-5 5s-5-2.24-5-5V2.5H15V5c0 2.76-2.24 5-5 5S5 7.76 5 5V2.5c-2.76 0-5 2.24-5 5V35c0 2.76 2.24 5 5 5h30c2.76 0 5-2.24 5-5V7.5c0-2.76-2.24-5-5-5zm0 30c0 1.383-1.117 2.5-2.5 2.5h-25A2.5 2.5 0 0 1 5 32.5v-15C5 16.12 6.12 15 7.5 15h25a2.5 2.5 0 0 1 2.5 2.5v15zm-8.785-13.164c.953.953.953 2.5 0 3.453l-8.977 8.977a2.441 2.441 0 1 1-3.453-3.453l8.977-8.977a2.441 2.441 0 0 1 3.453 0zm-12.43 0a2.441 2.441 0 0 1 3.453 0l8.977 8.977a2.441 2.441 0 1 1-3.453 3.453l-8.977-8.977a2.441 2.441 0 0 1 0-3.453z"/>
    </defs>
    <g fill="none" fill-rule="evenodd" transform="translate(4 4)">
        <mask id="b" fill="#fff">
            <use xlink:href="#a"/>
        </mask>
        <use fill="#000" fill-rule="nonzero" xlink:href="#a"/>
        <g fill="#FFF" mask="url(#b)">
            <path d="M-4-4h48v48H-4z"/>
        </g>
    </g>
</svg>
