<svg xmlns="http://www.w3.org/2000/svg" xmlns:xlink="http://www.w3.org/1999/xlink" width="48" height="48" viewBox="0 0 48 48">
    <defs>
        <path id="a" d="M36 8.403l-1.44.639c.055 3.69.534 7.912.81 8.28h-2.263c.269-.368.728-4.372.805-7.978L18 16.806 0 8.403 18 0l18 8.403zM18 18.601l11.287-5.495a15.81 15.81 0 0 1 4.497 11.052C33.784 32.893 26.704 40 18 40 9.297 40 2.216 32.893 2.216 24.158c0-4.233 1.667-8.081 4.372-10.926L18 18.6zm13.322 5.467a3.532 3.532 0 0 1-.343.406c-1.996 2.031-6.057 1.286-9.244-1.628-.764 1.95-2.056 3.913-4.242 4.887 1.612-1.289 2.059-2.937 2.138-5.525a16.593 16.593 0 0 1-1.847 1.648c-4.778 3.66-10.571 4.1-12.94.985a4.492 4.492 0 0 1-.156-.222C4.93 31.779 10.807 37.53 18 37.53c7.347 0 13.324-5.999 13.324-13.373l-.002-.09zm-19.68 5.517c0-.485.198-.967.54-1.31a1.864 1.864 0 0 1 1.304-.542c.483 0 .963.2 1.305.542.341.343.54.825.54 1.31 0 .485-.199.966-.54 1.31a1.864 1.864 0 0 1-1.305.541c-.483 0-.963-.2-1.304-.542a1.877 1.877 0 0 1-.54-1.31zm9.019 0c0-.485.198-.967.54-1.31a1.864 1.864 0 0 1 1.304-.542c.483 0 .963.2 1.305.542.341.343.54.825.54 1.31 0 .485-.199.966-.54 1.31a1.864 1.864 0 0 1-1.305.541c-.482 0-.963-.2-1.304-.542a1.877 1.877 0 0 1-.54-1.31z"/>
    </defs>
    <g fill="none" fill-rule="evenodd" transform="translate(6 4)">
        <mask id="b" fill="#fff">
            <use xlink:href="#a"/>
        </mask>
        <use fill="#000" fill-rule="nonzero" xlink:href="#a"/>
        <g fill="#FFF" mask="url(#b)">
            <path d="M-6-4h48v48H-6z"/>
        </g>
    </g>
</svg>
