<svg xmlns="http://www.w3.org/2000/svg" xmlns:xlink="http://www.w3.org/1999/xlink" width="48" height="48" viewBox="0 0 48 48">
    <defs>
        <path id="a" d="M36 0H4C1.8 0 0 1.8 0 4v32c0 2.2 1.8 4 4 4h32c2.2 0 4-1.8 4-4V4c0-2.2-1.8-4-4-4zm2 36c0 1.103-.897 2-2 2H4c-1.103 0-2-.897-2-2V4c0-1.103.897-2 2-2h32c1.103 0 2 .897 2 2v32zm-18-7a9 9 0 1 0 0-18 9 9 0 0 0 0 18zm0 3c-6.627 0-12-5.373-12-12S13.373 8 20 8s12 5.373 12 12-5.373 12-12 12zm0-6a6 6 0 1 0 0-12 6 6 0 0 0 0 12z"/>
    </defs>
    <g fill="none" fill-rule="evenodd" transform="translate(4 4)">
        <mask id="b" fill="#fff">
            <use xlink:href="#a"/>
        </mask>
        <use fill="#009688" fill-rule="nonzero" xlink:href="#a"/>
        <g fill="#009688" mask="url(#b)">
            <path d="M-4-4h48v48H-4z"/>
        </g>
    </g>
</svg>
