<svg xmlns="http://www.w3.org/2000/svg" xmlns:xlink="http://www.w3.org/1999/xlink" width="48" height="48" viewBox="0 0 48 48">
    <defs>
        <path id="a" d="M36 0H4C1.8 0 0 1.8 0 4v32c0 2.2 1.8 4 4 4h32c2.2 0 4-1.8 4-4V4c0-2.2-1.8-4-4-4zm2 36c0 1.103-.897 2-2 2H4c-1.103 0-2-.897-2-2V4c0-1.103.897-2 2-2h32c1.103 0 2 .897 2 2v32zM6 6l4.654 6.974V18h3.7v-5.026L19 6h-4.075l-2.413 4.052L10.1 6H6zm17 16v12h3.342v-6.59L30.65 34H34V22h-3.35v6.638L26.319 22H23zm6.607-11.412c-.838-.924-.656-.827-1.487-1.744-8.149 8.2-11.59 11.775-19.727 19.963.84.926.655.825 1.487 1.743 8.14-8.191 11.583-11.767 19.727-19.962z"/>
    </defs>
    <g fill="none" fill-rule="evenodd" transform="translate(-136 -8)">
        <rect width="64" height="64" x="128" fill="#9B9B9B" rx="11"/>
        <g transform="translate(140 12)">
            <mask id="b" fill="#fff">
                <use xlink:href="#a"/>
            </mask>
            <use fill="#4A4A4A" fill-rule="nonzero" xlink:href="#a"/>
            <g fill="#FFF" mask="url(#b)">
                <path d="M-4-4h48v48H-4z"/>
            </g>
        </g>
    </g>
</svg>
