<svg xmlns="http://www.w3.org/2000/svg" width="48" height="48" viewBox="0 0 48 48">
    <g fill="#000" fill-rule="evenodd">
        <path fill-rule="nonzero" d="M43.2 0H4.8C2.16 0 0 2.16 0 4.8v38.4C0 45.84 2.16 48 4.8 48h38.4c2.64 0 4.8-2.16 4.8-4.8V4.8C48 2.16 45.84 0 43.2 0zm2.4 43.2c0 1.324-1.076 2.4-2.4 2.4H4.8a2.402 2.402 0 0 1-2.4-2.4V4.8c0-1.324 1.076-2.4 2.4-2.4h38.4c1.324 0 2.4 1.076 2.4 2.4v38.4z"/>
        <path d="M6 20.5h7.467v7.467H6V20.5zm1.067 1.244v5.334H12.4v-5.334H7.067z"/>
        <path d="M10.07 25.37l-.68.68-.679-.68L7.6 24.26l.497-.497 1.11 1.11a.258.258 0 0 0 .367 0l1.974-1.973.496.497-1.973 1.974z"/>
        <g transform="translate(6 7)">
            <path fill-rule="nonzero" d="M4 7a3 3 0 1 0 0-6 3 3 0 0 0 0 6zm0 1a4 4 0 1 1 0-8 4 4 0 0 1 0 8z"/>
            <circle cx="4" cy="4" r="2"/>
        </g>
        <path d="M12.663 36.282L11.43 35.05l.925-.923c.17-.17.446-.17.616 0l.617.615c.17.17.17.445 0 .616l-.925.923m-4.008 4l-1.234-1.23 3.7-3.693 1.234 1.23-3.7 3.694M6.7 41l.41-1.64 1.234 1.23L6.7 41"/>
        <path fill-rule="nonzero" d="M18 26.2h22v-4.4H18v4.4zm24-6.4v8.4H16v-8.4h26zM18 39.4h22V35H18v4.4zM16 33h26v8.4H16V33zM18 13.2h22V8.8H18v4.4zm-2-6.4h26v8.4H16V6.8z"/>
    </g>
</svg>
