<svg xmlns="http://www.w3.org/2000/svg" xmlns:xlink="http://www.w3.org/1999/xlink" width="48" height="48" viewBox="0 0 48 48">
    <defs>
        <path id="a" d="M39.975 14.765c0 .024.025.072.025.12 0 .604-.495 1.086-1.114 1.086a1.095 1.095 0 0 1-1.114-1.086c0-.048.025-.072.025-.12h-.025V5.742c-.024-1.617-1.56-3.522-3.515-3.547H5.792c-1.832.073-3.564 1.713-3.589 3.74V34.21c.05 1.978 2.203 3.619 3.713 3.667h11.98c.594 0 1.064.482 1.064 1.061 0 .58-.47 1.038-1.064 1.062H5.816C2.947 40 0 37.008 0 34.33V5.67C0 2.58 3.02 0 5.817 0h28.341c2.995 0 5.817 2.557 5.817 5.67v9.095zM30 20c5.525 0 10 4.475 10 10s-4.475 10-10 10-10-4.475-10-10 4.475-10 10-10zm.176 4.352c-1.184 0-2.112.336-2.8 1.008-.704.672-1.04 1.6-1.04 2.784h1.824c0-.672.128-1.2.4-1.568.304-.448.8-.656 1.504-.656.544 0 .976.144 1.28.448.288.304.448.72.448 1.248 0 .4-.144.784-.432 1.136l-.192.224c-1.04.928-1.664 1.6-1.872 2.032-.224.432-.32.96-.32 1.568v.224h1.84v-.224c0-.384.08-.72.24-1.04a2.48 2.48 0 0 1 .64-.8c.768-.672 1.232-1.104 1.376-1.264.384-.512.592-1.168.592-1.968 0-.976-.32-1.744-.96-2.304-.64-.576-1.488-.848-2.528-.848zm-.288 9.232c-.352 0-.64.112-.88.336-.24.224-.352.512-.352.864s.112.64.352.864c.24.224.528.352.88.352s.64-.112.88-.336a1.17 1.17 0 0 0 .368-.88c0-.352-.128-.64-.352-.864a1.272 1.272 0 0 0-.896-.336zM8.78 27.681v.798c0 .332.312.62.728.62h5.796c.39 0 .728-.266.728-.62v-.798c0-.332-.312-.62-.728-.62H9.508c-.39 0-.728.288-.728.62zm10.304-9.264H9.47c-.37 0-.69.266-.69.62v.799c0 .332.295.62.69.62h9.613c.37 0 .69-.266.69-.62v-.798c0-.333-.32-.62-.69-.62zm10.993-8.643H9.471c-.37 0-.69.266-.69.62v.798c0 .333.295.621.69.621h20.606c.37 0 .69-.266.69-.62v-.798a.69.69 0 0 0-.69-.62z"/>
    </defs>
    <g fill="none" fill-rule="evenodd" transform="translate(4 4)">
        <mask id="b" fill="#fff">
            <use xlink:href="#a"/>
        </mask>
        <use fill="#000" fill-rule="nonzero" xlink:href="#a"/>
        <g fill="#4A90E2" mask="url(#b)">
            <path d="M-4-4h48v48H-4z"/>
        </g>
    </g>
</svg>
