<svg xmlns="http://www.w3.org/2000/svg" xmlns:xlink="http://www.w3.org/1999/xlink" width="48" height="48" viewBox="0 0 48 48">
    <defs>
        <path id="a" d="M39.975 14.765c0 .024.025.072.025.12 0 .604-.495 1.086-1.114 1.086a1.095 1.095 0 0 1-1.114-1.086c0-.048.025-.072.025-.12h-.025V5.742c-.024-1.617-1.56-3.522-3.515-3.547H5.792c-1.832.073-3.564 1.713-3.589 3.74V34.21c.05 1.978 2.203 3.619 3.713 3.667h11.98c.594 0 1.064.482 1.064 1.061 0 .58-.47 1.038-1.064 1.062H5.816C2.947 40 0 37.008 0 34.33V5.67C0 2.58 3.02 0 5.817 0h28.341c2.995 0 5.817 2.557 5.817 5.67v9.095zM37.937 21c.585 0 1.063.506 1.063 1.125v15.75c0 .619-.478 1.125-1.063 1.125H23.063C22.477 39 22 38.494 22 37.875v-15.75c0-.619.478-1.125 1.063-1.125h14.875zM27.5 36v-7H25v7h2.5zm4.6 0V25h-2.5v11h2.5zm4.4 0v-6H34v6h2.5zM8.78 27.681v.798c0 .332.312.62.728.62h5.796c.39 0 .728-.266.728-.62v-.798c0-.332-.312-.62-.728-.62H9.508c-.39 0-.728.288-.728.62zm10.304-9.264H9.47c-.37 0-.69.266-.69.62v.799c0 .332.295.62.69.62h9.613c.37 0 .69-.266.69-.62v-.798c0-.333-.32-.62-.69-.62zm10.993-8.643H9.471c-.37 0-.69.266-.69.62v.798c0 .333.295.621.69.621h20.606c.37 0 .69-.266.69-.62v-.798a.69.69 0 0 0-.69-.62z"/>
    </defs>
    <g fill="none" fill-rule="evenodd" transform="translate(4 4)">
        <mask id="b" fill="#fff">
            <use xlink:href="#a"/>
        </mask>
        <use fill="#000" fill-rule="nonzero" xlink:href="#a"/>
        <g fill="#4A90C5" mask="url(#b)">
            <path d="M-4-4h48v48H-4z"/>
        </g>
    </g>
</svg>
