<svg xmlns="http://www.w3.org/2000/svg" xmlns:xlink="http://www.w3.org/1999/xlink" width="48" height="48" viewBox="0 0 48 48">
    <defs>
        <path id="a" d="M36 0c2.2 0 4 1.8 4 4v32c0 2.2-1.8 4-4 4H4c-2.2 0-4-1.8-4-4V4c0-2.2 1.8-4 4-4h32zm2 36V4c0-1.103-.897-2-2-2H4c-1.103 0-2 .897-2 2v32c0 1.103.897 2 2 2h32c1.103 0 2-.897 2-2zM33.575 6H6.44c-1.263 0-2.342.967-2.434 2.234a2.41 2.41 0 0 0 2.331 2.59v15.41a3.056 3.056 0 0 0 3.046 3.069h9.725v1.284a2.343 2.343 0 0 0-1.303 2.09 2.319 2.319 0 0 0 2.44 2.32c1.148-.064 2.085-.997 2.165-2.154a2.332 2.332 0 0 0-1.234-2.233v-1.313h9.502c1.686 0 3.046-1.376 3.046-3.068V10.824c1.331-.063 2.377-1.226 2.268-2.608C35.907 6.996 34.792 6 33.575 6zM20.007 32.586a.504.504 0 0 1 .58-.58.497.497 0 0 1 .406.408.502.502 0 0 1-.58.58.497.497 0 0 1-.406-.408zM32 26.04c0 .528-.454.961-1.008.961H9.008C8.454 27 8 26.567 8 26.039V11h24v15.039zM6.327 8h27.346c.178 0 .327.222.327.5s-.15.5-.327.5H6.327C6.15 9 6 8.778 6 8.5c0-.272.15-.5.327-.5zm19.275 10.955l-9.147 5.227V13.727l9.147 5.228z"/>
    </defs>
    <g fill="none" fill-rule="evenodd" transform="translate(4 4)">
        <mask id="b" fill="#fff">
            <use xlink:href="#a"/>
        </mask>
        <use fill="#000" fill-rule="nonzero" xlink:href="#a"/>
        <g fill="#BB4955" mask="url(#b)">
            <path d="M-4-4h48v48H-4z"/>
        </g>
    </g>
</svg>
