<svg xmlns="http://www.w3.org/2000/svg" width="48" height="48" viewBox="0 0 48 48">
    <g fill="none" fill-rule="evenodd">
        <path fill="#2B579A" d="M42 15.893V41.5c0 1.38-1.152 2.5-2.575 2.5H8.575C7.153 44 6 42.878 6 41.498V6.502C6 5.12 7.154 4 8.57 4h21.012"/>
        <path fill="#183A6F" d="M29.571 4v8.627c0 1.738 1.518 3.16 3.373 3.16H42L29.571 4z"/>
        <g fill="#FFF" fill-rule="nonzero">
            <path d="M20.673 34.665l2.9-11.359 2.9 11.359h3.048L33 20h-2.9l-2.176 10.592L25.458 20H21.98l-2.76 10.439L17.049 20H14l3.482 14.665z"/>
        </g>
    </g>
</svg>
