<svg xmlns="http://www.w3.org/2000/svg" width="48" height="48" viewBox="0 0 48 48">
    <g fill="none" fill-rule="evenodd">
        <path fill="#63BC24" d="M40.947 15.893V41.5c0 1.38-1.145 2.5-2.56 2.5H7.718c-1.413 0-2.56-1.122-2.56-2.502V6.502C5.158 5.12 6.306 4 7.714 4h20.89"/>
        <path fill="#418D0B" d="M28.591 4v8.627c0 1.738 1.51 3.16 3.354 3.16h9.002L28.591 4z"/>
        <path fill="#FFF" d="M18.228 35.768v.607h2.204v.41h-1.838v.607h1.838v.41h-2.425v.6h1.875c-.448.467-1.13.853-2.052 1.162l.353.575c.354-.152.683-.31.986-.486v.6c0 .145-.089.252-.266.328l.215.562c.708-.17 1.402-.385 2.09-.65l-.132-.607c-.417.165-.84.316-1.263.449V39.21c.31-.253.568-.518.777-.809h.132c.537 1.333 1.377 2.236 2.52 2.71l.36-.581a3.933 3.933 0 0 1-1.37-.84c.354-.171.682-.405.979-.695l-.455-.442a3.266 3.266 0 0 1-.903.726 4.218 4.218 0 0 1-.53-.878h2.204v-.6H21.1v-.41h1.838v-.607h-1.838v-.41h2.205v-.607H21.1v-.467h-.67v.467h-2.203zm7.62 2.356v2.988h-.65v-2.798c-.177.48-.385.928-.632 1.339l-.284-.72c.41-.544.714-1.156.903-1.845h-.751v-.637h.764v-1.163h.65v1.163h.62v.637h-.62v.266c.24.259.487.543.727.846.486-.19.91-.404 1.27-.644a4.348 4.348 0 0 1-.544-.613 5.402 5.402 0 0 1-.404.436l-.423-.512c.417-.372.783-.903 1.092-1.585l.638.145c-.063.133-.12.26-.177.38h1.68v.505c-.202.467-.499.89-.884 1.256.404.253.865.461 1.396.638l-.297.626a5.575 5.575 0 0 1-.265-.114v2.4h-.644v-.221h-1.466v.22h-.644v-2.374c-.088.038-.177.07-.265.108l-.183-.253-.17.259c-.165-.29-.31-.53-.437-.733zm3.714.55a6.73 6.73 0 0 1-1.219-.708c-.366.266-.79.506-1.263.708h2.482zm-1.257-1.466c.278-.24.506-.505.682-.783h-1.313a.425.425 0 0 0-.045.07c.184.265.411.499.676.713zm-.758 3.076h1.466v-.998h-1.466v.998z"/>
        <g fill="#FFF">
            <path d="M17 23.4h14.259v3.596H17zM17 29.115h14.357v3.596H17zM17 17.644h14.259v3.596H17z"/>
            <path d="M17 18.04h3.214v8.956H17zM27.714 23.4h3.656v7.571h-3.656z"/>
        </g>
    </g>
</svg>
