<svg xmlns="http://www.w3.org/2000/svg" width="48" height="48" viewBox="0 0 48 48">
    <g fill="none" fill-rule="evenodd">
        <path fill="#F7800B" d="M40.947 15.893V41.5c0 1.38-1.145 2.5-2.56 2.5H7.718c-1.413 0-2.56-1.122-2.56-2.502V6.502C5.158 5.12 6.306 4 7.714 4h20.89"/>
        <path fill="#C66201" d="M28.591 4v8.627c0 1.738 1.51 3.16 3.354 3.16h9.002L28.591 4z"/>
        <path fill="#FFF" d="M23.577 34.627v1.27h-.48v.246h-1.206v.316h1.427v2.394h-3.474v-2.394h1.428v-.316h-1.2v-.252h-.48v-1.264h1.604a4.26 4.26 0 0 0-.139-.34l.663-.114c.05.139.108.29.158.454h1.7zm-3.328.96h2.678v-.36h-2.678v.36zm2.431 2.71v-.38h-.79v.38h.79zm-1.408 0v-.38h-.79v.38h.79zm-.79-.897h.79v-.385h-.79v.385zm1.409-.385v.385h.79v-.385h-.79zm.398 1.888l-.329.493c.487.177.96.417 1.415.732l.373-.568a8.577 8.577 0 0 0-1.46-.657zm-1.421-.006l.46.41c-.441.304-.985.569-1.622.802l-.405-.53a7.279 7.279 0 0 0 1.567-.682zm-2.457-4.61l-.468.454c.48.341.847.663 1.112.954l.467-.468a8.244 8.244 0 0 0-1.111-.94zm-.12 1.515l-.468.455c.455.34.803.657 1.043.954l.467-.468a7.76 7.76 0 0 0-1.042-.94zm.612 1.75l.581.233c-.29.783-.606 1.516-.953 2.204l-.607-.271c.38-.707.702-1.427.98-2.166zm8.006 2.45h-.814l-.14-.638c.253.025.5.038.727.038.17 0 .26-.082.26-.24V36.75h-2.4v-.65h5.443v.65h-2.374v2.584c0 .442-.234.67-.702.67zm-1.477-2.671l.65.145c-.253.871-.619 1.63-1.086 2.26l-.575-.36a6.072 6.072 0 0 0 1.01-2.045zm3.555-.083c.424.676.79 1.396 1.093 2.167l-.6.271a14.188 14.188 0 0 0-1.086-2.235l.593-.203zm-3.865-2.74v.644h4.301v-.645h-4.3z"/>
        <g fill="#FFF">
            <path d="M17.073 23.353h14.854v3.353H17.073z"/>
            <path d="M17.073 17h3.809v15h-3.809zM28.118 17h3.809v9.706h-3.809z"/>
            <path d="M17.073 17h14.854v3.353H17.073z"/>
        </g>
    </g>
</svg>
