<svg xmlns="http://www.w3.org/2000/svg" width="48" height="48" viewBox="0 0 48 48">
    <g fill="none" fill-rule="evenodd">
        <path fill="#347CED" d="M40.947 15.893V41.5c0 1.38-1.145 2.5-2.56 2.5H7.718c-1.413 0-2.56-1.122-2.56-2.502V6.502C5.158 5.12 6.306 4 7.714 4h20.89"/>
        <path fill="#003D9C" d="M28.591 4v8.627c0 1.738 1.51 3.16 3.354 3.16h9.002L28.591 4z"/>
        <path fill="#FFF" d="M17.969 35.227h2.5a4.513 4.513 0 0 0-.58-.82l.663-.24a5.6 5.6 0 0 1 .625 1.06h2.387v.657h-.953c-.303.948-.745 1.737-1.327 2.375.651.518 1.46.947 2.42 1.301l-.367.562c-1.01-.379-1.85-.846-2.52-1.402-.707.625-1.579 1.086-2.608 1.377l-.354-.581c1.004-.26 1.838-.663 2.495-1.22a5.633 5.633 0 0 1-1.421-2.412h-.96v-.657zm1.591.657a5.012 5.012 0 0 0 1.257 1.964 5.31 5.31 0 0 0 1.112-1.964H19.56zm10.432-1.055v1.51h-.664v-.884h-4.13v.884h-.663v-1.51h2.38a5.337 5.337 0 0 0-.277-.536l.764-.127c.089.196.177.417.253.663h2.337zm-4.46 1.144h3.455v.606c-.391.278-.833.55-1.313.815v.271h2.412v.632h-2.412v1.124c0 .423-.221.638-.657.638h-.777l-.158-.6c.215.013.455.019.714.019.139 0 .215-.095.215-.278v-.903h-2.565v-.632h2.565v-.537c.416-.214.751-.397.997-.55h-2.475v-.605z"/>
        <g fill="#FFF">
            <path d="M24.418 23.67l-.495-.572-6.473 6.3 2.802 2.091 3.537-3.788 3.79 3.818 2.849-2.122-6.01-5.727z"/>
            <path d="M27.781 17.723h4.063v13.71h-4.063zM16 17.723h4.063v13.71H16z"/>
        </g>
    </g>
</svg>
