<svg xmlns="http://www.w3.org/2000/svg" xmlns:xlink="http://www.w3.org/1999/xlink" width="48" height="48" viewBox="0 0 48 48">
    <defs>
        <path id="a" d="M28.588 25.157H26.77l-.63-.629a14.724 14.724 0 0 0 3.591-9.662C29.731 6.656 23.076 0 14.866 0S0 6.655 0 14.866c0 8.21 6.655 14.865 14.866 14.865 3.693 0 7.067-1.35 9.662-3.579l.63.629v1.807L36.591 40 40 36.592 28.588 25.157zm-13.722 0c-5.684 0-10.292-4.608-10.292-10.291 0-5.684 4.608-10.292 10.292-10.292 5.683 0 10.291 4.608 10.291 10.292 0 5.683-4.608 10.291-10.291 10.291z"/>
    </defs>
    <g fill="none" fill-rule="evenodd" transform="translate(4 4)">
        <mask id="b" fill="#fff">
            <use xlink:href="#a"/>
        </mask>
        <use fill="#000" fill-rule="nonzero" xlink:href="#a"/>
        <g fill="#FFF" mask="url(#b)">
            <path d="M-4-4h48v48H-4z"/>
        </g>
    </g>
</svg>
